<svg xmlns="http://www.w3.org/2000/svg" width="251.7" height="101.9" overflow="visible"><path d="M187.2 73.9c-6.4 0-12.2-3.8-10.8-14.2l4.9-34.1h15.1l-5 35.1c-.6 4.3 1.1 5.7 3 5.7 2.6 0 7.1-4.7 7.7-5.6.6-.9 2.3-1.3-.4 3.1-3.1 4.8-9.5 10-14.5 10M147 0h-15.3l-9.3 66.3c-.6 3.8.9 7.6 7.5 7.6 6.8 0 15.7-12 16.5-13.1.6-.9-.1-2-1.8-.4-2 1.9-6.7 5.2-6.1-.5L147 0zm26.6 0h-15.3L149 66.3c-.6 3.8.9 7.6 7.5 7.6 6.8 0 15.7-12 16.5-13.1.6-.9-.1-2-1.8-.4-2 1.9-6.7 5.2-6.1-.5L173.6 0zM25.9 60.7c-.6.9-5.1 5.6-7.7 5.6-1.9 0-3.6-1.4-3-5.7l5-35.1H5.1L.2 59.7C-1.2 70.1 4.7 73.9 11 73.9c5 0 11.4-5.2 14.5-10.1 2.8-4.5 1.1-4 .4-3.1m31-25.6c14.2 29.5 2.1 34.5-5 34.5-8.5 0-7.6-6.6-7-10.9l4.7-33.2H34.3l-2.6 19-2.4 17.1c-.6 9 4.6 12.3 13 12.3 20.9 0 39.5-19.5 31.5-42.7-3.8-11.1-22.2-7.1-16.9 3.9m153.7-9.5l-2.6 19c-.1.5-.1.9-.2 1.4l-2.2 15.6L204 73c-1.9 13.7 6.8 28.6-5 18l-.6-.6c-.3-.3-.6-.5-.9-.8-.2-.2-.5-.4-.7-.6-3.5-3-7.5-5.8-10.9-5.7-3.9.1-8 3.1-8 8.6.1 11.9 18.5 11.1 28.6 3.7 8.4-5.5 11.9-17.2 13.1-26.3l6.2-43.6h-15.2zM96.8 44.8s-.7 0-.8.4c-.1.6.8.8.8.8 31.8 5.7 32.7-20.8 11-21.1-.5 0-1.4 0-1.6.7-.1.5.7 1.1.7 1.1 4 3.8 0 15.3-10.1 18.1M120.6 55c-.6-.3-.9.7-2.1 2-2.1 2.3-6.4 5.9-13.7 5.9-7.1 0-13.7-4.7-11.9-17.5l.3-1.9c1.5-8.9 4.6-14.3 8.2-16.4.5-.3 2-1 2.2-1.5.5-1-.7-.9-1.2-.9-11 1.6-23 10.3-25 24.9-1.8 12.8 5.1 24.2 20.8 24.2 10.7 0 18.8-7.9 22.5-17.4.2-.8.3-1.2-.1-1.4m97.6 43.7c0 1.8-1.4 3.2-3.2 3.2-1.8 0-3.2-1.4-3.2-3.2 0-1.7 1.4-3.1 3.2-3.1 1.8 0 3.2 1.4 3.2 3.1zm-5.6 0c0 1.4 1 2.5 2.4 2.5s2.4-1.1 2.4-2.5-1-2.5-2.4-2.5-2.4 1.1-2.4 2.5zm1.9 1.6h-.7v-3.1c.3-.1.7-.1 1.2-.1.6 0 .9.1 1.1.2.2.1.3.4.3.7 0 .3-.3.6-.6.7.3.1.5.3.6.8.1.5.2.7.2.8h-.8c-.1-.1-.2-.4-.2-.8-.1-.3-.2-.5-.7-.5h-.3v1.3zm.1-1.7h.3c.4 0 .7-.1.7-.5 0-.3-.2-.5-.7-.5h-.4v1zm32.3-87.8l4-4c1.1-1.1 1.1-3 0-4.1L249 .8c-1.1-1.1-3-1.1-4.1 0l-4 4-4-4c-1.1-1.1-3-1.1-4.1 0l-1.9 1.9c-1.1 1.1-1.1 3 0 4.1l4 4-4 4c-1.1 1.1-1.1 3 0 4.1l1.9 1.9c1.1 1.1 3 1.1 4.1 0l4-4 4 4c1.1 1.1 3 1.1 4.1 0l1.9-1.9c1.1-1.1 1.1-3 0-4.1l-4-4z" fill="#009a87"/></svg>